<svg width="801" height="608" viewBox="0 0 801 608" fill="none" xmlns="http://www.w3.org/2000/svg">
<path d="M1.5 1.5H798.5V598.5H1.5V1.5Z" fill="#333333" stroke="#444444" stroke-width="3"/>
<path opacity="0.5" d="M725.183 105.118L768.354 96.961L757.699 114.848L748.82 129.753L740.828 143.168L730.173 161.055L690.11 163.995L725.183 105.118Z" fill="#777777" fill-opacity="0.5"/>
<path opacity="0.9" d="M717.491 69.4041L768.354 96.961L725.184 105.118L677.147 79.0919L717.491 69.4041Z" fill="#222222" fill-opacity="0.6"/>
<path opacity="0.7" d="M676.677 79.2746L725.442 105.143L690.111 163.995L641.367 137.586L676.677 79.2746Z" fill="#555555" fill-opacity="0.35"/>
<path opacity="0.5" d="M275.169 328.089L259.048 258.027L288.982 274.296L313.926 287.853L336.377 300.054L366.31 316.322L373.701 381.639L275.169 328.089Z" fill="#777777" fill-opacity="0.5"/>
<path opacity="0.9" d="M217.27 342.969L259.048 258.027L275.169 328.088L235.713 408.311L217.27 342.969Z" fill="#222222" fill-opacity="0.6"/>
<path opacity="0.7" d="M236.042 409.069L275.195 327.664L373.701 381.638L333.664 463.042L236.042 409.069Z" fill="#555555" fill-opacity="0.35"/>
<path opacity="0.5" d="M446.31 446.229L430.409 491.443L419.348 471.605L410.131 455.074L401.835 440.196L390.775 420.359L409.902 380.931L446.31 446.229Z" fill="#777777" fill-opacity="0.5"/>
<path opacity="0.9" d="M484.23 458.492L430.409 491.442L446.309 446.229L497.14 415.109L484.23 458.492Z" fill="#222222" fill-opacity="0.6"/>
<path opacity="0.7" d="M497.225 414.565L446.144 446.459L409.902 380.931L461.48 349.353L497.225 414.565Z" fill="#555555" fill-opacity="0.35"/>
<path opacity="0.5" d="M595.762 197.246L571.661 170.576L588.694 170.391L602.888 170.237L615.663 170.098L632.697 169.913L651.83 196.636L595.762 197.246Z" fill="#777777" fill-opacity="0.5"/>
<path opacity="0.9" d="M574.102 217.844L571.661 170.576L595.762 197.245L598.068 241.887L574.102 217.844Z" fill="#222222" fill-opacity="0.6"/>
<path opacity="0.7" d="M598.396 242.137L595.67 197.054L651.83 196.636L654.17 241.933L598.396 242.137Z" fill="#555555" fill-opacity="0.35"/>
<path opacity="0.5" d="M725.994 274.295L730.945 297.742L721.066 292.139L712.835 287.471L705.426 283.269L695.548 277.667L693.479 255.853L725.994 274.295Z" fill="#777777" fill-opacity="0.5"/>
<path opacity="0.9" d="M745.38 269.684L730.945 297.742L725.994 274.295L739.628 247.796L745.38 269.684Z" fill="#222222" fill-opacity="0.6"/>
<path opacity="0.7" d="M739.523 247.542L725.983 274.436L693.479 255.854L707.313 228.965L739.523 247.542Z" fill="#555555" fill-opacity="0.35"/>
<path opacity="0.5" d="M746.624 532.5L759.11 503.088L765.632 516.753L771.067 528.141L775.959 538.389L782.482 552.054L768.093 577.48L746.624 532.5Z" fill="#777777" fill-opacity="0.5"/>
<path opacity="0.9" d="M721.911 522.742L759.11 503.088L746.624 532.5L711.492 551.061L721.911 522.742Z" fill="#222222" fill-opacity="0.6"/>
<path opacity="0.7" d="M711.413 551.42L746.744 532.354L768.093 577.48L732.445 596.315L711.413 551.42Z" fill="#555555" fill-opacity="0.35"/>
<path opacity="0.5" d="M49.6246 298.5L62.1109 269.088L68.6333 282.753L74.0686 294.141L78.9604 304.389L85.4828 318.054L71.0942 343.48L49.6246 298.5Z" fill="#777777" fill-opacity="0.5"/>
<path opacity="0.9" d="M24.9123 288.742L62.1109 269.088L49.6249 298.5L14.4929 317.061L24.9123 288.742Z" fill="#222222" fill-opacity="0.6"/>
<path opacity="0.7" d="M14.4136 317.42L49.7447 298.354L71.0944 343.48L35.4457 362.315L14.4136 317.42Z" fill="#555555" fill-opacity="0.35"/>
<path opacity="0.5" d="M169.696 68.3846L189.665 68.1577L183.478 75.3182L178.322 81.2854L173.681 86.6559L167.493 93.8165L149.329 91.9549L169.696 68.3846Z" fill="#777777" fill-opacity="0.5"/>
<path opacity="0.9" d="M169.086 51.7902L189.665 68.1577L169.697 68.3848L150.261 52.9266L169.086 51.7902Z" fill="#222222" fill-opacity="0.6"/>
<path opacity="0.7" d="M150.036 52.971L169.81 68.4167L149.33 91.9551L129.608 76.2695L150.036 52.971Z" fill="#555555" fill-opacity="0.35"/>
<path opacity="0.5" d="M299.953 507.725L325.745 496.933L321.48 509.477L317.927 519.93L314.729 529.338L310.465 541.882L285.917 549.016L299.953 507.725Z" fill="#777777" fill-opacity="0.5"/>
<path opacity="0.9" d="M290.438 486.514L325.745 496.933L299.954 507.725L266.608 497.885L290.438 486.514Z" fill="#222222" fill-opacity="0.6"/>
<path opacity="0.7" d="M266.339 498.061L300.118 507.707L285.918 549.016L252.082 539.031L266.339 498.061Z" fill="#555555" fill-opacity="0.35"/>
</svg>
